<svg t="1684824242233" class="icon" viewBox="0 0 1024 1024" version="1.1" xmlns="http://www.w3.org/2000/svg" p-id="1278" width="200" height="200"><path d="M397.781333 437.632A170.666667 170.666667 0 1 0 128 298.666667c0 97.621333 53.162667 240.170667 150.912 360.277333 95.061333 116.778667 236.373333 217.386667 421.418667 235.221333a170.666667 170.666667 0 1 0-113.237334-268.970666c-48.853333-19.242667-93.013333-53.461333-128.426666-93.610667A372.736 372.736 0 0 1 402.474667 448a271.189333 271.189333 0 0 1-4.693334-10.368zM384 298.666667a85.333333 85.333333 0 1 1-170.666667 0 85.333333 85.333333 0 0 1 170.666667 0z m-65.92 169.557333c2.304 5.546667 4.821333 11.093333 7.424 16.64 16.469333 34.389333 40.064 70.101333 69.12 103.125333 41.642667 47.232 96.682667 91.221333 161.28 116.693334a172.970667 172.970667 0 0 0 5.12 66.986666c-87.936-37.546667-160.128-98.048-215.893333-166.613333a667.221333 667.221333 0 0 1-88.021334-140.8 171.050667 171.050667 0 0 0 60.970667 3.968z m392.96 341.248a85.333333 85.333333 0 1 1 15.445333 1.194667 515.157333 515.157333 0 0 1-15.402666-1.194667z" p-id="1279"></path></svg>